<svg xmlns="http://www.w3.org/2000/svg" viewBox="0 0 509.96 712.15"><defs><style>.cls-1{fill:#f7d2d2;}.cls-1,.cls-10,.cls-11,.cls-12,.cls-13,.cls-14,.cls-15,.cls-16,.cls-17,.cls-18,.cls-19,.cls-2,.cls-20,.cls-3,.cls-4,.cls-5,.cls-6,.cls-7{stroke:#1d1d1b;}.cls-1,.cls-10,.cls-11,.cls-12,.cls-13,.cls-14,.cls-15,.cls-16,.cls-17,.cls-18,.cls-19,.cls-2,.cls-20,.cls-3,.cls-4,.cls-5,.cls-6,.cls-7,.cls-9{stroke-miterlimit:10;}.cls-2{fill:#040505;}.cls-3{fill:#f4dbbd;stroke-width:0.25px;}.cls-4{fill:#f4bd0e;}.cls-5{fill:#f8ebcb;}.cls-6{fill:#ad4e17;}.cls-7,.cls-9{fill:#f4cebb;}.cls-8{fill:#1d1d1b;}.cls-9{stroke:#060707;}.cls-10{fill:#f2efed;}.cls-11{fill:#57b031;}.cls-12{fill:#060707;}.cls-13{fill:#d24b16;}.cls-14{fill:#2f4999;}.cls-15{fill:#e00d39;}.cls-16{fill:#0a0b0c;}.cls-17{fill:#58b032;}.cls-18{fill:#844795;}.cls-19{fill:#522810;}.cls-20{fill:#1195a3;}.cls-21{fill:#fff;}</style></defs><g id="Layer_2" data-name="Layer 2"><g id="Layer_1-2" data-name="Layer 1"><path class="cls-1" d="M59,367.65c-1.77-2.63-44-27-26-68s22-70,44-65,38.89-.57,38.89-.57C221.19,342.35,118.36,426.71,59,367.65Z"/><path class="cls-2" d="M38,274.65v47l24-14c-7.64-28.37-4.7-13.5,11-17v-31l13,13,49,20s30.44,36.19,29.72,33.59,9.28,7.41,9.28,7.41-2-23.33,0-39.67,19-33.33,18-37.33-8.52-10.57-8.52-10.57l-18.76-4.78L157,226.65l-7-6s-12.65-2-13.83,0-3.17,7-3.17,7l-10,3-14.78-10.89H57.64S48,215.65,49,223.65s-1,13,3,15,4.6,7.43,4.6,7.43L44,259.65c-5-3.95-19.31-16-22,2-2,10-3,24-1,27s-3,13-3,13l-10,11c0,5.75,0,25.76,0,31.87l6,11.13,4,14s10.09,11,12.54,12.51,7.78,0,7.78,0,12.95,9.62,11.68.49c-.67-4.77-9.74-2.39,2.45-10,29.75-18.58,1-14.58-1.45-12-5-6.14-14.94-43.84-16-49,0,0-13,40,3,32"/><path class="cls-3" d="M231.92,265.65c-10.54,10.7-105.39,99.11-44.93,122.19,0,0,36,21.81,69,16.81s50.5-85.5,34.5-99.5L276,265.9"/><path class="cls-4" d="M196,268.65S178,296.32,183,293s26-18.33,26-18.33c-1.93,38.76-8.48,40.91,19,13.33l19.64,19.34c3.4,3.33-4.39-21,0-19.34S266,308.65,269,312.65s.82-25,4.41-22,23.59,12,24.59,16,13,5,5.52-5.48S284,277.65,286,278.65s25,7,24,1-29.37-14-34-14-15,13-7,6,38-22.57,27-17-35,10-39,11-17.87-13.53-17.87-13.53c1.15-2.74-4.67,25.62,0,22.58,8.14-5.27-19.16-30.65-25.13-25l3.5,19-17.5-14Z"/><path class="cls-5" d="M330.91,302v25.49c-59.44,41.83-16.05,149.84,47.31,86.13l28-28.7L422,349.65s25,46,20,4-13-60-20-34-50-25.84-50-25.84l-23.88-3.64Z"/><path class="cls-6" d="M340,335.65l-32,10c-6.3,28.41-22.78-47,28-51-4.21-.92-39-67.58,63-11-.26-.69,11.75-82.71,47,17-35.2,7.9,25.51,38.8-4,21,1.38-2.24,63.9-17.89,19,14,0,0-32.65,100-64,82-51.53-29.58,42.53-69.53,36.66-64.45-37.43,32.36-91.43,1.34-49.66-12.55Z"/><path class="cls-7" d="M82,489.65l8,14.69,20-29.69c17,6,20.83-36.47,20-38s6,33,6,33c13.26,4,13.83-31,10-13-5.56-41.28-7.43-51.06-7-48,1.87-7.23-20.19,6.22-20.37,8.37C75.23,404.4,94,455.65,94,456.65Z"/><path class="cls-8" d="M63.42,323.16a35.78,35.78,0,0,1,21.9-17.33c3.1-.84,1.78-5.67-1.33-4.82A40.78,40.78,0,0,0,59.1,320.64c-1.54,2.83,2.78,5.35,4.32,2.52Z"/><path class="cls-8" d="M114.14,299.27a37.14,37.14,0,0,1,20.7,11.06c2.22,2.34,5.75-1.2,3.54-3.54a41.63,41.63,0,0,0-22.91-12.34,2.56,2.56,0,0,0-3.07,1.74,2.53,2.53,0,0,0,1.74,3.08Z"/><path class="cls-8" d="M71.32,340.19l19.14-6.13a2.5,2.5,0,0,0,1.79-2.74,2.56,2.56,0,0,0-2.46-2.17,13.94,13.94,0,0,0-9.52,2.41,2.56,2.56,0,0,0-.89,3.42,2.52,2.52,0,0,0,3.42.9,9.57,9.57,0,0,1,7-1.73l-.66-4.91L70,335.37a2.5,2.5,0,0,0,1.33,4.82Z"/><path class="cls-8" d="M82.54,333a3.45,3.45,0,0,0-.38-1,4.16,4.16,0,0,0-.63-.88,4.43,4.43,0,0,0-1.87-1.17,3.57,3.57,0,0,0-.8-.18,4.41,4.41,0,0,0-.81-.05,4.54,4.54,0,0,0-1.1.2,4.89,4.89,0,0,0-1.46.86,2.52,2.52,0,0,0-.74,1.77,2.44,2.44,0,0,0,.74,1.77,4.61,4.61,0,0,0,2.09,1.11,5.54,5.54,0,0,0,2.43,0,5.3,5.3,0,0,0,2.11-1.11,3.85,3.85,0,0,0,1.1-1.4,3.14,3.14,0,0,0,.4-1.43,2.62,2.62,0,0,0-.41-1.39,3.88,3.88,0,0,0-.7-.87,3.67,3.67,0,0,0-.85-.61,4.16,4.16,0,0,0-1-.4,5.22,5.22,0,0,0-3.75.59,4.23,4.23,0,0,0-2.17,3.82,2.43,2.43,0,0,0,.34,1.26,1.88,1.88,0,0,0,.64.7,2.5,2.5,0,0,0,2.18.45,7.51,7.51,0,0,0,3.42-1.86,7.69,7.69,0,0,0,2-3.25,3.57,3.57,0,0,0,.19-1.55,2.88,2.88,0,0,0-1.4-2,3.3,3.3,0,0,0-2.53-.41,4.22,4.22,0,0,0-2.69,2,3.76,3.76,0,0,0-.54,2,3.33,3.33,0,0,0,.46,1.59A3.73,3.73,0,0,0,78,332.65a2.5,2.5,0,0,0,3.42-.9,2.5,2.5,0,0,0,.25-1.93,2.83,2.83,0,0,0-1.15-1.49l-.07-.05.5.39-.15-.16.39.51a1,1,0,0,1-.1-.17l.25.6a1,1,0,0,1-.06-.23l.09.67a.88.88,0,0,1,0-.23l-.09.66a1.4,1.4,0,0,1,.1-.35l-.25.59a1.72,1.72,0,0,1,.22-.37l-.39.5a2.28,2.28,0,0,1,.38-.38l-.5.39a1.72,1.72,0,0,1,.37-.22l-.59.25a1.57,1.57,0,0,1,.31-.08l-.67.09h.24l-.67-.09a.79.79,0,0,1,.22.06l-.59-.25a.82.82,0,0,1,.17.11l-.51-.4.16.16-.39-.5,0,0-.25-1.92a4.53,4.53,0,0,1-.29.95l.25-.59a5.31,5.31,0,0,1-.65,1.1l.39-.5a5.6,5.6,0,0,1-.91.91l.5-.39a5.3,5.3,0,0,1-1.17.69l.6-.26a4.6,4.6,0,0,1-.82.26l3.17,2.41a2.54,2.54,0,0,1,0-.39l-.09.67a1.85,1.85,0,0,1,.12-.4l-.25.59a1.41,1.41,0,0,1,.21-.35l-.39.51a1.54,1.54,0,0,1,.36-.36l-.51.39a2.91,2.91,0,0,1,.59-.34l-.6.25a3.9,3.9,0,0,1,.67-.18l-.67.09a2.5,2.5,0,0,1,.67,0l-.66-.09a1.69,1.69,0,0,1,.49.13l-.59-.25a1.75,1.75,0,0,1,.35.2l-.5-.39a1.38,1.38,0,0,1,.29.3l-.39-.51a2.13,2.13,0,0,1,.16.25l-.26-1.93-.06.17.25-.6a2,2,0,0,1-.26.45l.39-.5a2.74,2.74,0,0,1-.45.45l.51-.4a3.16,3.16,0,0,1-.56.33l.6-.26a2.7,2.7,0,0,1-.74.2l.66-.09a2.73,2.73,0,0,1-.7,0l.67.09a2.73,2.73,0,0,1-.56-.15l.6.25a2.51,2.51,0,0,1-.45-.26l.5.39L79,330.7v3.54l0,0-.51.39.29-.17-.59.25a2.09,2.09,0,0,1,.43-.11l-.67.09a2.17,2.17,0,0,1,.51,0l-.67-.09a2.19,2.19,0,0,1,.5.14l-.6-.25a2.15,2.15,0,0,1,.49.28l-.5-.39a1.87,1.87,0,0,1,.31.32l-.39-.5a1.38,1.38,0,0,1,.2.33l-.25-.59a1.64,1.64,0,0,1,.1.38,2.46,2.46,0,0,0,1.15,1.49,2.48,2.48,0,0,0,3.42-.89l.25-.6a2.5,2.5,0,0,0,0-1.33Z"/><path class="cls-8" d="M117.54,329.31a51.91,51.91,0,0,1,15.51-.66,2.51,2.51,0,0,0,2.5-2.5,2.57,2.57,0,0,0-2.5-2.5,56,56,0,0,0-16.84.84,2.52,2.52,0,0,0-1.74,3.08,2.56,2.56,0,0,0,3.07,1.74Z"/><path class="cls-8" d="M128.68,320.8a3.91,3.91,0,0,0-1.53-.88,3.13,3.13,0,0,0-1.18-.13,4.39,4.39,0,0,0-1.71.46,4.59,4.59,0,0,0-1,.67,4.18,4.18,0,0,0-1.25,1.94,3.68,3.68,0,0,0,.35,2.9,2.48,2.48,0,0,0,.89.9,1.85,1.85,0,0,0,.93.29,1.89,1.89,0,0,0,1,0,2.5,2.5,0,0,0,1.1-.64,4.78,4.78,0,0,0,1.05-1.32,7.44,7.44,0,0,0,.46-1.05,3.58,3.58,0,0,0,.14-.54,7.25,7.25,0,0,0,.14-1.14,5,5,0,0,0-.08-.86,5.28,5.28,0,0,0-.62-1.92l-.39-.51a1.93,1.93,0,0,0-.81-.51,1.15,1.15,0,0,0-.63-.17,1.89,1.89,0,0,0-1,0,3.08,3.08,0,0,0-.76.3,3.5,3.5,0,0,0-.64.47,2.76,2.76,0,0,0-.6.76,3.25,3.25,0,0,0-.39,1.24,3.65,3.65,0,0,0,0,1.35,3.68,3.68,0,0,0,.92,1.74,3.3,3.3,0,0,0,1.35.82,2.51,2.51,0,0,0,.49.08,1.91,1.91,0,0,0,.53.05,1.88,1.88,0,0,0,1-.22,1.93,1.93,0,0,0,.81-.51,2.57,2.57,0,0,0,.73-1.77,2.53,2.53,0,0,0-.73-1.77,2.4,2.4,0,0,0-1.77-.73h-.2l.66.09-.15-.05.6.26-.16-.1.51.4a.75.75,0,0,1-.15-.16l.39.51a1.71,1.71,0,0,1-.13-.23l.25.6a1.19,1.19,0,0,1-.09-.36l.09.67a1,1,0,0,1,0-.34l-.09.67a1,1,0,0,1,.06-.25l-.25.59a1.08,1.08,0,0,1,.11-.18l-.39.5.13-.13-.51.39.14-.07-.6.25.16-.05L123.09,322c0,.1.1.19.14.29l-.25-.6a3.55,3.55,0,0,1,.19.71l-.09-.66a3.32,3.32,0,0,1,0,.89l.09-.66a3.75,3.75,0,0,1-.23.81l.25-.6a3.07,3.07,0,0,1-.39.68l.39-.51a3.19,3.19,0,0,1-.4.42l3.92.51-.07-.15.25.6a1.34,1.34,0,0,1-.07-.27l.09.67a1,1,0,0,1,0-.34l-.09.66a2,2,0,0,1,.09-.33l-.25.6a1.79,1.79,0,0,1,.22-.38l-.39.5a2.22,2.22,0,0,1,.38-.37l-.51.39a2.22,2.22,0,0,1,.42-.25l-.6.25a2.9,2.9,0,0,1,.42-.12l-.67.09a1.7,1.7,0,0,1,.39,0l-.67-.09a1.4,1.4,0,0,1,.29.09l-.59-.26.24.15-.51-.39.06,0a2.66,2.66,0,0,0,1.77.73,2.55,2.55,0,0,0,1.77-.73,2.51,2.51,0,0,0,0-3.54Z"/><path class="cls-8" d="M125.44,326.26a4.4,4.4,0,0,0,.34-.77.83.83,0,0,0,.06-.21,3.67,3.67,0,0,0,0-1.68,3.9,3.9,0,0,0-1-1.78,4.82,4.82,0,0,0-1.82-1.08,4.36,4.36,0,0,0-1.07-.18h-.3c-.25,0-.5.06-.75.11a2.75,2.75,0,0,0-1,.42,3.51,3.51,0,0,0-1.18,1.24l-.25.6a1.89,1.89,0,0,0-.05,1,1.29,1.29,0,0,0,.17.63,1.85,1.85,0,0,0,.52.8,3.33,3.33,0,0,0,2.37,1.06h0a5.28,5.28,0,0,0,.68-.09h.07A3,3,0,0,0,124,325l.07-.11a5.24,5.24,0,0,0,.27-.65l0-.07a2.94,2.94,0,0,0,.12-.93,3.16,3.16,0,0,0-.39-1.5,2.51,2.51,0,0,0-.79-.89,2.41,2.41,0,0,0-1-.51,3.34,3.34,0,0,0-.82-.13,3.17,3.17,0,0,0-.53,0,4.08,4.08,0,0,0-.59.11,1.94,1.94,0,0,0-.85.45,1.88,1.88,0,0,0-.64.7,2,2,0,0,0-.3.93,1.86,1.86,0,0,0,.05,1l.25.6a2.43,2.43,0,0,0,.9.9l.59.25a2.5,2.5,0,0,0,1.33,0,1.22,1.22,0,0,1,.26-.06l-.67.09h.23l-.67-.09.14,0-.6-.25.12.07-.51-.4.08.09-.39-.51a.75.75,0,0,1,.07.12l-.25-.6a.75.75,0,0,1,0,.16l-.09-.67a1.34,1.34,0,0,1,0,.2l.09-.66a1,1,0,0,1-.06.22l.25-.6-.1.17.39-.51-.1.11.5-.4a.41.41,0,0,1-.11.07l.6-.25-.12,0,.66-.09h-.12l.66.09a.44.44,0,0,1-.15-.05l.59.26a1.37,1.37,0,0,1-.2-.13l.51.39a1.07,1.07,0,0,1-.16-.14l.39,3,.1-.17-.39.51a.91.91,0,0,1,.17-.17l-.51.39.22-.13-.6.25.26-.07-.66.09a1.37,1.37,0,0,1,.35,0l-.67-.09a1.49,1.49,0,0,1,.47.13l-.6-.26a2.51,2.51,0,0,1,.45.26l-.5-.39a1.67,1.67,0,0,1,.32.33L121,325a1.49,1.49,0,0,1,.18.3l-.25-.6a1.34,1.34,0,0,1,.07.27l-.09-.67a1,1,0,0,1,0,.25l.09-.66a.86.86,0,0,1-.06.23l.25-.6a.91.91,0,0,1-.09.17,2,2,0,0,0-.3.93,2.26,2.26,0,0,0,.5,1.85,1.8,1.8,0,0,0,.7.64l.6.26a2.47,2.47,0,0,0,1.32,0l.6-.26a2.48,2.48,0,0,0,.9-.89Z"/><path class="cls-8" d="M82.3,357.24c12.61,11.88,35.37,14.37,48.51,1.92a27.16,27.16,0,0,0,7.55-13.26c.77-3.12-4.05-4.46-4.82-1.33a22.45,22.45,0,0,1-14.15,15.91,33.15,33.15,0,0,1-22.67-.19,31.77,31.77,0,0,1-10.88-6.59C83.5,351.5,80,355,82.3,357.24Z"/><path class="cls-8" d="M101.87,350.08H103a2.83,2.83,0,0,0,1.77-.74,1.83,1.83,0,0,0,.51-.8,1.88,1.88,0,0,0,.22-1l-.09-.67a2.5,2.5,0,0,0-.64-1.1l-.51-.39a2.43,2.43,0,0,0-1.26-.34h-1.08a2.43,2.43,0,0,0-2.28,1.53,1.9,1.9,0,0,0-.22,1l.09.66a2.52,2.52,0,0,0,.65,1.1l.5.39a2.54,2.54,0,0,0,1.26.35Z"/><path class="cls-8" d="M109.4,347.93h1.08a1.88,1.88,0,0,0,1-.22,2.3,2.3,0,0,0,1.32-1.32,1.88,1.88,0,0,0,.22-1l-.09-.67a2.52,2.52,0,0,0-.65-1.1l-.5-.39a2.43,2.43,0,0,0-1.26-.34H109.4a1.78,1.78,0,0,0-1,.21,1.85,1.85,0,0,0-.81.52,1.83,1.83,0,0,0-.51.8,1.9,1.9,0,0,0-.22,1l.09.66a2.5,2.5,0,0,0,.64,1.1l.51.39a2.54,2.54,0,0,0,1.26.35Z"/><path class="cls-8" d="M245.08,320.07a79.18,79.18,0,0,1,20.3,17.7,2.52,2.52,0,0,0,3.54,0,2.56,2.56,0,0,0,0-3.53,83.22,83.22,0,0,0-21.31-18.49c-2.76-1.67-5.28,2.65-2.53,4.32Z"/><path class="cls-8" d="M193.34,329.51a29.17,29.17,0,0,1,23.57-15.31c3.19-.2,3.22-5.2,0-5A34.26,34.26,0,0,0,189,327c-1.51,2.84,2.81,5.37,4.32,2.52Z"/><path class="cls-8" d="M239.51,345.77c3.22,0,3.22-5,0-5s-3.22,5,0,5Z"/><path class="cls-8" d="M240.5,345.18a2.8,2.8,0,0,0,.64-4.29,3.36,3.36,0,0,0-2.94-1,2.83,2.83,0,0,0-2.32,3.79,5.36,5.36,0,0,0,1.55,2c2.53,2.07,5.9,2.39,9.06,2.36,1.5,0,3-.13,4.5-.19l-.66-4.91c-.58.11.4,0,.06,0l-.44,0h-.86l-.43,0c-.32,0,.53.11.07,0-.28-.07-.56-.12-.84-.2s-.55-.17-.82-.27c-.44-.17.31.16,0,0l-.39-.19c-.26-.14-.51-.28-.76-.44l-.36-.24c-.24-.17-.17-.29,0,0-.13-.21-.48-.4-.66-.57s-.41-.41-.6-.63-.15-.17-.23-.26c-.38-.45.3.44,0-.05-.14-.22-.29-.43-.42-.65s-.26-.51-.39-.77.17.48,0,0c-.05-.14-.1-.27-.14-.41a7.79,7.79,0,0,1-.22-.83c-.09-.44-.11-.08,0,.06-.07-.09,0-.41,0-.52l-4.27,1.77,3.38,3.46a2.52,2.52,0,0,0,2.73.52,2.45,2.45,0,0,0,1.54-2.29,8.75,8.75,0,0,0-2.25-5.05,2.49,2.49,0,0,0-2.73-.52,2.56,2.56,0,0,0-1.54,2.29c-.19,2.32,1.35,4.77,3.92,4.42a3.08,3.08,0,0,0,1.73-5.31,2.5,2.5,0,1,0-3.54,3.53c.23.22-.21-.31-.21-.31.17.3-.21-.57-.15-.38a2.45,2.45,0,0,1,.19-1.55,1.87,1.87,0,0,1,1.17-.89l-.12,0a1.73,1.73,0,0,1,.74,0c.49.07.28.05.17,0s.61.28.4.16.56.47.3.22c0,0,.4.55.24.28,0,0,.29.61.14.31,0-.07,0-.18-.05-.24.25.35,0,.52.05.17,0-.14,0-.29,0-.42L240.49,339a2.61,2.61,0,0,1,.27.31c-.18-.24-.19-.24,0,0s.23.42.35.62.06.13-.05-.12c.05.12.09.25.13.38s.19,1,.11.34l4.27-1.76-3.38-3.47c-1.45-1.48-4.41-.43-4.27,1.77a11.39,11.39,0,0,0,4.32,8.24,11.66,11.66,0,0,0,9.43,2.47,2.5,2.5,0,0,0-.66-4.91,62.8,62.8,0,0,1-6.72.13,3.06,3.06,0,0,0-.89-.09c.16-.05.57.09.12,0l-.39-.07a12.58,12.58,0,0,1-1.6-.43c-.42-.14.4.2.13.06l-.32-.16a7.31,7.31,0,0,0-.7-.43c.14.05.43.38.13.09l-.24-.23c-.21-.22-.17-.37,0,.09a4,4,0,0,0-.22-.34l.25,1.93a2.09,2.09,0,0,1-2,1.46c.25,0,.13,0-.37,0-.44-.21-.55-.26-.33-.14a2.09,2.09,0,0,1-.93-1.2v-1.33l1-1.25a2.55,2.55,0,0,0-.89,3.42,2.52,2.52,0,0,0,3.42.89Z"/><path class="cls-8" d="M198.31,341.72a42,42,0,0,0,9.9-3.64,2.52,2.52,0,0,0,1.15-2.82,2.63,2.63,0,0,0-2.41-1.84l-6.22-.48,2.16,3.76c-.12.15-.33.41-.07.12a3.07,3.07,0,0,1,.25-.26c.15-.15.31-.29.47-.43s-.52.36-.1.09l.24-.16c.2-.13.41-.23.62-.35s-.11.05-.2.08c.11,0,.22-.09.33-.12s.41-.13.62-.18l.35-.08c.29-.07-.67.06-.16,0,.23,0,.47,0,.71,0a2.52,2.52,0,0,0,2.16-1.24,2.6,2.6,0,0,0,0-2.52,3.88,3.88,0,0,0-4.66-1.74,4.43,4.43,0,0,0-2.34,1.73,3.73,3.73,0,0,0-.46,2.88l4.18-2.43c-.22-.22.24.33.24.32s.23.67.17.4a1.72,1.72,0,0,1-.08,1.16c-.18.44-.1.24,0,.14s-.42.44-.25.33l.11-.12c.08-.12-.55.35-.29.22l.14-.08c.2-.17-.34.16-.38.15s.11,0,.14-.05c.31-.06-.49.06-.44.05h.14c-.53-.1-.7-.12-.5-.06s.05,0-.2-.09a2.83,2.83,0,0,1-.61-.38c.08.08,0,0-.13-.17a1.31,1.31,0,0,1-.33-.64,2.75,2.75,0,0,0,1.15,1.49,2.51,2.51,0,0,0,3.42-.9,2.41,2.41,0,0,0,.25-1.92,3.85,3.85,0,0,0-.9-1.47,3.15,3.15,0,0,0-2.08-.85,3.85,3.85,0,0,0-2.19.6,3.46,3.46,0,0,0-.88,5.4,2.54,2.54,0,0,0,3,.39,2.61,2.61,0,0,0,1.15-2.82s0,.74.06.36-.15.72,0,.38c0,0-.3.64-.15.37s-.43.45-.22.28l.15-.15c0,.05-.56.36-.29.24a1.14,1.14,0,0,0,.19-.1c.12-.09-.61.16-.31.14l.17,0c.29-.11-.5,0-.35,0h.21s-.7-.12-.41,0c.11,0,.38.14-.07-.05-.23-.1-.29-.13-.19-.07s.06,0-.34-.28c.37.34-.31-.57-.09-.09l2.16-3.76a9.14,9.14,0,0,0-4.17,1,8.93,8.93,0,0,0-3.2,2.78,2.43,2.43,0,0,0,0,2.52,2.57,2.57,0,0,0,2.15,1.24l6.22.48-1.26-4.66c-.71.37-1.43.72-2.16,1l-.32.13c-.25.11-.21.09.13-.05a3.45,3.45,0,0,1-.48.2l-1.2.45a38,38,0,0,1-4.68,1.36,2.52,2.52,0,0,0-1.74,3.08,2.56,2.56,0,0,0,3.07,1.75Z"/><path class="cls-8" d="M194.83,364.79c7.07,10.93,18.22,18.81,31.21,20.8a48.56,48.56,0,0,0,5.78.58c1.42.05,2.9-.14,4.31,0l-1.26-.34h0l.6-4.57c-.4.16.68,0,.31,0s-.5.05-.74.08c-.77.07-1.53.13-2.3.18s-1.56.1-2.34.11h-.93c-.32,0-.27-.17-.06,0s.32,0,.16,0c-.61-.18-.18.16,1.29,1l.35,1.26v0l-.34,1.26a1.8,1.8,0,0,1-.54.59c-.23.17-.27.2-.11.11l-1.26.35c5.2-.09,10.53-.46,15.5-2.12a37.57,37.57,0,0,0,13.31-8.15,84.5,84.5,0,0,0,7.84-8.43,2.56,2.56,0,0,0,0-3.53,2.5,2.5,0,0,0-3.53,0,70.47,70.47,0,0,1-10.25,10.47,29.09,29.09,0,0,1-9.09,4.95A39.48,39.48,0,0,1,232,381.05c-2.08.1-5.37-.36-5.77,2.46-.3,2.13,1.6,3,3.36,3.05a31.88,31.88,0,0,0,4-.16,12.35,12.35,0,0,0,3.16-.34,2.54,2.54,0,0,0,.6-4.57c-.9-.64-2.53-.29-3.52-.29a45.92,45.92,0,0,1-4.83-.22,40.43,40.43,0,0,1-8.49-1.83,39.28,39.28,0,0,1-14.77-8.85,44.23,44.23,0,0,1-6.65-8c-1.74-2.69-6.07-.19-4.31,2.53Z"/><path class="cls-8" d="M352.08,344.7a35.47,35.47,0,0,1,9.6,23.31c.08,3.21,5.08,3.22,5,0a40.72,40.72,0,0,0-11.07-26.85c-2.21-2.34-5.74,1.2-3.53,3.54Z"/><path class="cls-8" d="M318.92,357.34a37.07,37.07,0,0,1,16.44-14.13,2.51,2.51,0,0,0,.9-3.42,2.56,2.56,0,0,0-3.42-.89,41.83,41.83,0,0,0-18.24,15.91,2.5,2.5,0,0,0,4.32,2.53Z"/><path class="cls-8" d="M340.17,372.66a43.59,43.59,0,0,0,11.23,5.25c2.35.71,4.28-2.49,2.43-4.18-3-2.71-5.07-6.21-7.86-9.1a2.51,2.51,0,0,0-3.93,3l1.2,2.53a2.52,2.52,0,0,0,3.42.89,2.56,2.56,0,0,0,.9-3.42l-1.2-2.52-3.93,3c2.79,2.89,4.88,6.38,7.87,9.1l2.43-4.18c-.91-.28-1.81-.58-2.7-.92l-.71-.28c-.12-.05-.91-.34-.28-.11-.44-.16-.88-.39-1.3-.59a40.4,40.4,0,0,1-5.05-2.85,2.52,2.52,0,0,0-3.42.9,2.56,2.56,0,0,0,.9,3.42Z"/><path class="cls-8" d="M317.56,369.19l5.24-1.25a2.41,2.41,0,0,0,1.3-.89,2.29,2.29,0,0,0,.53-1.52,4.53,4.53,0,0,0-.72-2.23,4.78,4.78,0,0,0-1.62-1.51c-1.14-.6-2.78-.86-3.74.2a3.42,3.42,0,0,0-.93,2.35,4,4,0,0,0,2,3.31,3.6,3.6,0,0,0,4.3-.47,2.53,2.53,0,0,0,0-3.53,4.89,4.89,0,0,0-3.9-1.53,4.51,4.51,0,0,0-2.71,1,3.63,3.63,0,0,0-.76,2.94,9.34,9.34,0,0,0,3.25,6.6,2.55,2.55,0,0,0,3.93-.51l2.95-3.93a2.51,2.51,0,0,0-2.82-3.68,3,3,0,0,0-1.5,1.15l-2.95,3.94,3.93-.51a6.65,6.65,0,0,1-1.14-1.17l.39.51a7.39,7.39,0,0,1-.87-1.52l.25.6a7.46,7.46,0,0,1-.46-1.68l.09.66a7.4,7.4,0,0,1,0-1.63l-1.23,2.16.28-.14-.6.25a2.61,2.61,0,0,1,.61-.16l-.67.09a2.74,2.74,0,0,1,.64,0L320,367a3.38,3.38,0,0,1,.71.19l-.59-.25a3,3,0,0,1,.54.32l-.51-.4c.11.09.21.19.31.29v-3.53l-.06.05.51-.39a1.06,1.06,0,0,1-.2.12l.6-.25a1.38,1.38,0,0,1-.27.08l.66-.09a1.41,1.41,0,0,1-.29,0l.67.09a1.61,1.61,0,0,1-.29-.09l.6.26a2.59,2.59,0,0,1-.33-.19l.5.39a2.57,2.57,0,0,1-.33-.33l.39.51a2.23,2.23,0,0,1-.2-.33l.25.6c0-.1-.06-.19-.08-.29l.09.67a1.41,1.41,0,0,1,0-.29l-.09.67c0-.08,0-.14.06-.21l-.25.6a1.76,1.76,0,0,1,.12-.2l-2.16,1.24h.11l-.67-.08a2.12,2.12,0,0,1,.51.13l-.59-.25a2.6,2.6,0,0,1,.45.28l-.51-.39a1.91,1.91,0,0,1,.37.38l-.39-.51a2.35,2.35,0,0,1,.26.46l-.25-.6a2.08,2.08,0,0,1,.11.41l-.09-.66v.1l1.84-2.41-5.24,1.25a2.52,2.52,0,0,0-1.75,3.07,2.56,2.56,0,0,0,3.08,1.75Z"/><path class="cls-8" d="M319.32,405.81a26.56,26.56,0,0,0,11.94,5.58,27.9,27.9,0,0,0,12.35-.8c8.3-2.39,15.58-7.77,21.67-13.75A85.36,85.36,0,0,0,374.57,386a2.51,2.51,0,0,0-.9-3.42,2.56,2.56,0,0,0-3.42.89,71,71,0,0,1-16,16.24c-5.86,4.18-12.8,7.55-20.17,7.07a20.83,20.83,0,0,1-11.25-4.45,2.57,2.57,0,0,0-3.53,0,2.5,2.5,0,0,0,0,3.53Z"/><path class="cls-8" d="M213.7,359.75c3.22,0,3.23-5,0-5s-3.22,5,0,5Z"/><path class="cls-8" d="M224.46,359.75c3.21,0,3.22-5,0-5s-3.23,5,0,5Z"/><path class="cls-8" d="M320.14,391l1.07.12a2,2,0,0,0,1-.21,2,2,0,0,0,.8-.52,2.83,2.83,0,0,0,.74-1.77l-.09-.66a2.5,2.5,0,0,0-.65-1.11l-.5-.39a2.53,2.53,0,0,0-1.26-.34l-1.07-.12a1.88,1.88,0,0,0-1,.22,2.3,2.3,0,0,0-1.32,1.32,1.88,1.88,0,0,0-.22,1l.09.67a2.52,2.52,0,0,0,.65,1.1l.5.39a2.43,2.43,0,0,0,1.26.34Z"/><path class="cls-8" d="M333.49,390.6l.12-1.07a2,2,0,0,0-.21-1,2.61,2.61,0,0,0-2.29-1.54l-.66.09a2.55,2.55,0,0,0-1.11.65l-.39.5a2.53,2.53,0,0,0-.34,1.26l-.12,1.07a1.88,1.88,0,0,0,.22,1,2.3,2.3,0,0,0,1.32,1.32,1.88,1.88,0,0,0,1,.22l.67-.09a2.52,2.52,0,0,0,1.1-.65l.39-.5a2.43,2.43,0,0,0,.34-1.26Z"/><path class="cls-7" d="M184.3,461.55a5.78,5.78,0,0,1-6.17,1.57c-20.33-1.8,16-30.57,22-38,0,0,15.32-21.49,24.57-3.48,0,0,27.84.12,20.05,20.06S257,478.46,262,477.55s-17.58,21.51-17.58,21.51L225,466.65c-29.15,10.73-29.44-20.88-16-34Z"/><path class="cls-9" d="M297.7,462.65s-42.07,57.38-18,37.69l18-16.79s14.89-35.33,15.09,0c.14,23.41,24.08,1.26,20.17,12.1l6.74-3s.51-16.18-12.74-4.59v-12.9s16.63,11.15,27.74,2.49l-2-15h25.46l-.42-16.89c-1.75.19-40,5.91-44,5.89,0,0-26.12-12.79-30.56-5.89C303.14,445.76,297.7,441.65,297.7,462.65Z"/><path class="cls-10" d="M105.61,520c15.61,13.31-.76,72.87-15.9,56.73,11.9-5.56-.26-33,3.58-48.5C95.39,519.7,100.67,515.75,105.61,520Z"/><path class="cls-10" d="M121,535.65c5.44-18.84,270.61-13.14,264-13.28l-12,46.28S168.75,586,123.66,571.83Z"/><path class="cls-11" d="M146.44,580.83S255,598.65,441,559.65c0,0-23,26,5,33,0,0,27,119-49,119H82s-113-120-18-118C64,593.65,23.93,579,146.44,580.83Z"/><path class="cls-12" d="M166.69,510.91s-30-3.24.11-12.26c0,0,23.31-.48,9.16,12.26v13.46l-4.16.28Z"/><path class="cls-12" d="M296.41,506.41s-19.54-6.46,0-9.36c1.83,1.16,31.43,5.85,18.29,9.36-10.74,2.74-7.13,12.24-7.13,12.24h-6.41Z"/><path class="cls-12" d="M207,490.38c-4.39-4.92-10.54-15.21,14-9.73-6.83-1.14,26.26,8.72-5.58,12.57-.82,1-21.58,17.87-22.21,19.12-5.2,12,4.42-12.88,13.44-19.69A1.47,1.47,0,0,0,207,490.38Z"/><path class="cls-13" d="M.5,41.51,7,200.65s144.22,42.14-3-153"/><path class="cls-14" d="M68.48,154.11C81.78,54.46,110,113.91,128.11,175c-47.79,32.6-73.25,35.08-22.57-25.71,0,0-6.27-24.71-10.93-13.17,0,0-2-13-21.8,17.28Z"/><path class="cls-15" d="M134,33.65s3.3,134.84-.85,137.42,0,3.84,0,3.84,14.89,64,14.87,3.35,17.32-7.19,17.32-7.19,19.15,75.1,11.4,21.84l-22.52-67c-.22-.3,22.52-28.57,22.52-28.57s13.43-33.69-9.66-6.71l-14.91,21.65Z"/><path class="cls-16" d="M193,85.65s.42-47-.26-44.94c-6,18.67-1.74-99.17,10.76,0-.16,21.27,1.95,166,0,160.56,0,0-9.09,48.72-10.8-88,0,0-16.81,23.35-22.49,26.65-2.18,1.27-2.94-13.17-.22-20.32"/><path class="cls-16" d="M205.14,84.15c3.07-4.35,20.16-29.55,10.37,11.54-1.26,3.55-9.95,12.36-10.1,13-3.22,3.87-19.32,5.86-19.55.83l9.34-13.74C194.72,91.21,202.91,87.33,205.14,84.15Z"/><path class="cls-17" d="M221.46,136.47s-13.5,146.3,0,73.24S233,99.29,221.46,136.47Z"/><path class="cls-17" d="M228,110.59c-1.41-4.09-8-3.76-8-3.76l16-14.68c-7.44,13.7,3.09,10,7.57,8.63l-11.61,9-4,8.86C225.63,120.37,229,113.3,228,110.59Z"/><path class="cls-18" d="M270.74,22.88s-69.39,210.26,6.86,195.7c0,0,26.06-5.09,44.43-25.23,0,0,5.8-24.61-61.83,10.56,0,0-.22-129.63,10.54-181Z"/><path class="cls-19" d="M364,158.65c-2.52,2.7-67.14,69.36-15.63,69.41l-2.22,9.08h8.59l6.36-8h8.31V217.59c-4.44-6.91-46.32,12.66-.07-43.66C387.09,152.26,341.81,174.76,364,158.65Z"/><path class="cls-19" d="M367.67,187.71c3.47-16,42.32-38.78,31.16,3.7C380.3,259.58,357.46,202.29,367.67,187.71Z"/><path class="cls-19" d="M449.65,175.58s-23.85,36.27-10.33,40.07c5.43,44.75,29.76-28.23,33.45-31.43,0,0-50.27,64.66-15.37-8.64Z"/><path class="cls-19" d="M488,160.36s37-83.73,13.78,0l-17.2,45.16c-3.54,2.29,23.42-48.77,24.85-20.25L488.2,214.42s-14.69,66.92-.17,50.51c24.28-11,2.27,16.22,1.37,17.72,0,0-13.49-2.2-13.16-66.75l-22.82,24.5Z"/><path class="cls-20" d="M283,143.42c-1.37-4.44-9.34-56.95,19.59-29.91.21.09,32,23.9,26.41,46.14-.74-2.56,0,25.4-27.45,11.38-13.25-6.76-11.72-13.52-14.95-15.19Z"/><path class="cls-8" d="M25.34,143.56q1.34,18.83,2.5,37.66c0,.31.67.34.86.33,6.7-.55,16.55-2.6,16.54-11.08,0-3.37-1.38-6.67-2.85-9.63a92.56,92.56,0,0,0-6-10.08c-2.31-3.48-4.76-6.89-6.86-10.51-.49-.86-3.25.16-2.9.78,3.56,6.15,8,11.74,11.49,17.94,2.54,4.51,6.52,11.94,2.84,16.89-2.46,3.3-7.25,3.95-11,4.25l.86.33q-1.15-18.83-2.51-37.65c-.05-.76-3-.2-2.89.77Z"/><path class="cls-8" d="M300.19,138.2A11.17,11.17,0,0,0,298.66,149c1.13,3,3.45,6.06,6.64,7.09a7,7,0,0,0,5.07-.29,8.71,8.71,0,0,0,3.88-4,12.4,12.4,0,0,0,1.28-3.47,7.06,7.06,0,0,0-.16-2.63,15.34,15.34,0,0,0-2.6-5.6,12.32,12.32,0,0,0-5.2-4.42A6.32,6.32,0,0,0,301,136.7c-.45.39-.77,1.06-.16,1.48A1.88,1.88,0,0,0,303,138c.16-.14.34-.26.51-.4s0,0,0,0l.31-.17.21-.09c-.31.14-.14,0-.05,0l.32-.08c.28-.09-.28,0,0,0l.22,0c.34-.05-.2,0,0,0a4.21,4.21,0,0,1,.5,0s.4.09.11,0l.22.06c.2.07.4.13.6.22a4.14,4.14,0,0,1,.87.46,9.74,9.74,0,0,1,1.05.77,12.78,12.78,0,0,1,1.82,1.92,14.68,14.68,0,0,1,2.52,4.69,8.48,8.48,0,0,1,.29,1.1,5.21,5.21,0,0,1-.45,3.62,13.2,13.2,0,0,1-.6,1.33,8.45,8.45,0,0,1-.61,1,7.53,7.53,0,0,1-.73.86l-.16.16c.23-.22,0,0-.08,0s-.27.21-.41.31c-.34.24.17-.06-.2.11-.12.06-.27.11-.39.18s.37-.1.07,0l-.18.06-.26.06c-.28.09.34,0,0,0l-.41,0h-.22c.37,0,.18,0,.1,0l-.45-.05-.19,0c-.28,0,.24.07,0,0a7.17,7.17,0,0,1-3.06-1.8,11.93,11.93,0,0,1-2.45-3.57,10.88,10.88,0,0,1-1-5,8.65,8.65,0,0,1,1.75-4.83.83.83,0,0,0-.38-1.39,2,2,0,0,0-2,.54Z"/><path class="cls-8" d="M383.08,188.79c.12,2.77-1.84,5.28-3.2,7.53-1.21,2-2.93,4.88-1.93,7.31a5.38,5.38,0,0,0,2.65,2.88,5.66,5.66,0,0,0,4.56-.7c2.35-1.36,3.62-4.24,4.44-6.7a17.86,17.86,0,0,0,1-8.71,3.93,3.93,0,0,0-1.73-2.85c-1.6-.85-3.77-.15-5.31.5-.29.13-.94.5-.37.7a3.41,3.41,0,0,0,2-.39c.31-.13-.23.17,0,0,.05,0,.13,0,.18-.07-.47.24.37,0-.17.05.36-.06-.22,0,.07,0h.17c.23,0-.15,0,0,0l.17,0,.22.06a2.74,2.74,0,0,1,.52.28,3.65,3.65,0,0,1,1.26,2.3,16.2,16.2,0,0,1-.65,7.78c-.67,2.31-1.7,5-3.52,6.63l-.25.21c-.21.17,0,0-.11.08l-.15.09c-.18.1,0-.06.07,0l-.11.06c-.14.06.21-.08.23-.08s.52-.11.22-.06c.66-.11-.19,0,.37,0a.56.56,0,0,0-.13,0s-.05,0,.07,0l-.18,0-.19-.05a4.82,4.82,0,0,1-2.38-2.47c-1.24-2.44.64-5.42,1.87-7.45,1.4-2.29,3.27-4.8,3.15-7.61,0-.43-2.93,0-2.9.78Z"/><path class="cls-21" d="M383.8,202.11a11.11,11.11,0,0,1-2.75-4.75,6.07,6.07,0,0,1,.7-3.81,11.15,11.15,0,0,1,2.31-3.51,4.79,4.79,0,0,1,.62-.53c.05,0,.51-.28.25-.15.14-.07.35-.09.1,0q.25-.07,0,0c.16,0,.16,0,0,0,.17.11,0,0,.17,0a2.73,2.73,0,0,1,.85.4l-.29-.3a11,11,0,0,1,0,6.62,9.39,9.39,0,0,1-3.39,5.36c-.39.25-.86.78-.26,1.1a2.37,2.37,0,0,0,2.05-.27,11.28,11.28,0,0,0,4.44-6.38,14,14,0,0,0,.57-4,10.93,10.93,0,0,0-.12-1.71,3.41,3.41,0,0,0-.59-1.79,4.16,4.16,0,0,0-3.53-.56,6.69,6.69,0,0,0-3.14,1.74,13.49,13.49,0,0,0-3.49,6c-.8,2.79,1,5.69,2.85,7.67.67.72,3.43-.34,2.69-1.12Z"/><path class="cls-21" d="M381.78,197.46a3.59,3.59,0,0,0-.54,2.76c.08.4,1.17.16,1.38.11.45-.1,1.27-.29,1.5-.75a21.53,21.53,0,0,0,2.15-9.22c0-.31-.91-.2-1-.19a3.75,3.75,0,0,0-1.56.52,7.77,7.77,0,0,0-3.24,8.53c.11.35,1,.2,1.19.16a3.46,3.46,0,0,0,1.57-.65,8.49,8.49,0,0,0,2.81-8.57c-.08-.32-.82-.21-1-.18a3.48,3.48,0,0,0-1.56.52,5.29,5.29,0,0,0-1.9,6.7c.17.34.9.21,1.18.16a2.89,2.89,0,0,0,1.58-.65c1.27-1.45,2.64-3.59,2.28-5.63a1.11,1.11,0,0,0-1.12-1,3.47,3.47,0,0,0-3.16,1.54,11,11,0,0,0-1,4.16c0,.34,1.09.18,1.18.16a3.12,3.12,0,0,0,1.58-.65,5.72,5.72,0,0,0,1.45-5.72c-.11-.35-1-.2-1.18-.16a3.45,3.45,0,0,0-1.58.65,9.72,9.72,0,0,0-1.46,1.67A12.18,12.18,0,0,0,380,194a2.81,2.81,0,0,0-.3,2c.36.84,1.48.84,2.24.79a3,3,0,0,0,1.94-.69c.42-.48-.38-.51-.69-.49h-.08c-.11,0-.11,0,0,0l-.08,0c-.16,0-.1,0-.25-.11a.76.76,0,0,1-.26-.54,3.23,3.23,0,0,1,.49-1.81,10.37,10.37,0,0,1,2.42-3.33l-2.76.49a5.14,5.14,0,0,1-1.18,5.15l2.77-.5a12.92,12.92,0,0,1,.71-3.35c.06-.15.13-.29.2-.44l.12-.21.08-.12s.24-.15.08-.09a5.27,5.27,0,0,1-.52.25,3.45,3.45,0,0,1-1.43.22c-.15,0-.08-.07,0,.05s.05.07,0,0l.07.12a3.05,3.05,0,0,1,.17.66,4.75,4.75,0,0,1-.29,1.94,8.76,8.76,0,0,1-1.75,2.93l2.77-.49a4.67,4.67,0,0,1,1.22-5.83l-2.56.34a7.87,7.87,0,0,1-2.53,8l2.76-.49a7,7,0,0,1,2.57-7.64l-2.56.33a20.87,20.87,0,0,1-2.12,9l2.88-.64a3.12,3.12,0,0,1,.5-2.48c.3-.44-1.05-.32-1.16-.3a2.67,2.67,0,0,0-1.7.8Z"/><path class="cls-21" d="M383.05,200.78a1.3,1.3,0,0,1,.15-.2l-.19.21a1.43,1.43,0,0,1,.23-.2l-.27.19.2-.12-.33.16.19-.08-.38.13h0l-1.63-.52a1.79,1.79,0,0,0-.17.6,2.67,2.67,0,0,0,0,.8.47.47,0,0,0,.3.3,1.43,1.43,0,0,0,.58.12,2.91,2.91,0,0,0,1.47-.39c.13-.08.25-.17.37-.26l.1-.09a2.11,2.11,0,0,0,.36-.43,1.82,1.82,0,0,0,.2-.45,2,2,0,0,0,0-.48.37.37,0,0,0-.2-.24.64.64,0,0,0-.36-.14,1.75,1.75,0,0,0-.51,0,1.88,1.88,0,0,0-.57.09l-.38.13a2.09,2.09,0,0,0-.59.35l-.19.2a.5.5,0,0,0-.1.41v-.17a1,1,0,0,1-.1.43l.1-.2a1.44,1.44,0,0,1-.18.25l.19-.21a.57.57,0,0,1-.14.13l.26-.18-.09,0,2.34,0a1.64,1.64,0,0,1,0-.44v.2a2,2,0,0,1,.18-.76.38.38,0,0,0-.1-.38.67.67,0,0,0-.32-.17,1.2,1.2,0,0,0-.46-.07,2.78,2.78,0,0,0-.76.1,4.59,4.59,0,0,0-.48.17c-.15.06-.29.14-.43.21a4,4,0,0,0-.48.32,1.12,1.12,0,0,0-.2.18,2.18,2.18,0,0,0-.34.4.36.36,0,0,0-.1.31.27.27,0,0,0,.1.27.59.59,0,0,0,.32.17,1.18,1.18,0,0,0,.45.07,2.77,2.77,0,0,0,1.14-.23,1.72,1.72,0,0,0,.78-.55Z"/><path class="cls-21" d="M307.41,152c-2.34-1-3.2-4.42-3.53-6.68a12.71,12.71,0,0,1,.06-4.35,6.26,6.26,0,0,1,.58-1.69,2.52,2.52,0,0,1,.87-1l-1.46.39c.34,0-.15-.08.18,0,.1,0,.22.06.32.09-.26-.09.16.09.21.12a1.9,1.9,0,0,1,.39.23,6.2,6.2,0,0,1,1.23,1.23,12.1,12.1,0,0,1,1.9,3.82,14.46,14.46,0,0,1,.77,4.42,8.07,8.07,0,0,1-.22,2,2.89,2.89,0,0,1-.6,1.32c-.09.13.19-.19,0,0a1.29,1.29,0,0,1-.17.16c-.09.1,0,.09.08,0s-.17.13-.19.12.32-.13.12-.06-.06,0,.08,0c-.35.09.31,0-.14,0-.2,0,.36,0,.05,0l-.28,0c.3,0-.19,0-.29-.06a5.79,5.79,0,0,1-1.14-.44,2.24,2.24,0,0,0-2.05.25c-.4.26-.87.9-.24,1.2,2.47,1.2,6,1.15,7.3-1.7,1.07-2.34.6-5.31-.13-7.69s-2-5.13-4.34-6.22a4.18,4.18,0,0,0-2.11-.41,3.94,3.94,0,0,0-2.56,1.73,8.21,8.21,0,0,0-1.29,4.66,15.87,15.87,0,0,0,1,6.1c.62,1.58,1.61,3.32,3.26,4a2.3,2.3,0,0,0,2.05-.25c.37-.23.9-.93.24-1.2Z"/><path class="cls-21" d="M304.09,152.7c.54,2.29,4.16,2.27,5.52.83a5.1,5.1,0,0,0,1.16-4.73c-.84-3.52-3.82-6.13-4.62-9.65-.11-.5-.88-.56-1.27-.52a2.19,2.19,0,0,0-1.54.82c-1.48,1.94-1.31,4.59-.66,6.81A18.28,18.28,0,0,0,306,152.6c.52.62,1.72.26,2.26-.07,3.39-2.11-1.33-5-2.14-6.95-.44-1.05-2.71-.45-2.9.54a8.82,8.82,0,0,0,1.09,6.19c.54.94,3.35,0,2.67-1.19a7.65,7.65,0,0,1-.85-5.3l-2.91.54a13,13,0,0,0,2.28,3,5.54,5.54,0,0,1,.94,1.4,1.56,1.56,0,0,1,.1.58c0,.31,0-.18-.05.12l0,0c.1-.08.08-.08-.05,0l2.26-.07a17,17,0,0,1-3.08-5.74c-.61-2-.91-4.3.43-6l-2.81.3c.65,2.89,2.77,5.23,4,7.88a6.13,6.13,0,0,1,.68,3.77,3.42,3.42,0,0,1-.29.75c-.12.23-.68,1,0,.38.11-.1.23.13,0,0l-.15-.07a.94.94,0,0,1-.49-.68c-.27-1.14-3.18-.38-2.9.78Z"/><path class="cls-21" d="M304.05,138.89a12.77,12.77,0,0,1,2.44,9.46c-.16,1.09,2.75.57,2.89-.38a13.62,13.62,0,0,0-2.63-10.19c-.58-.76-3.37.23-2.7,1.11Z"/><path class="cls-21" d="M27.45,146.26l7.84,17.65a1.4,1.4,0,0,0,1.73.66c.5-.14,1.46-.77,1.16-1.44l-7.83-17.65a1.4,1.4,0,0,0-1.73-.66c-.5.14-1.46.77-1.17,1.44Z"/><path class="cls-21" d="M27.49,145.66c2.9,7,8.37,12.77,10.81,20.06,1.05,3.12,1.44,6.73-.79,9.45a8.27,8.27,0,0,1-1.88,1.66c-.47.32-2.32,1.61-2.84,1.24s-.3-2-.33-2.42c-.07-.8-.13-1.59-.19-2.38-.11-1.6-.2-3.19-.28-4.79-.37-7.39-.57-14.79-1.65-22.12-.13-.86-3-.21-2.9.78,1.07,7.24,1.27,14.57,1.64,21.88.08,1.67.18,3.35.29,5,.07,1,.15,1.91.23,2.86.06.69-.05,1.76.49,2.26,1.77,1.61,5.32-.41,6.93-1.38,3.36-2,5.34-5.13,5-9.1-.35-4.16-2.56-8.08-4.63-11.61-2.35-4-5.22-7.86-7-12.19-.38-.91-3.23,0-2.9.78Z"/><path class="cls-21" d="M29.14,156.69a75,75,0,0,1,4.63,18c.1.8,3,.18,2.89-.78a75.19,75.19,0,0,0-4.62-18c-.35-.88-3.21,0-2.9.78Z"/><path class="cls-21" d="M32.37,162.82q1.89,5.46,3.53,11c.39,1.35,3.29.56,2.89-.78q-1.63-5.53-3.52-11c-.24-.69-1.1-.79-1.72-.62s-1.41.71-1.18,1.39Z"/><path class="cls-21" d="M34.76,163.88a57.33,57.33,0,0,1,2.94,9.41l2.77-1-.27-.36a1.66,1.66,0,0,0-2-.24c-.53.26-1.12.94-.68,1.53l.27.36c.71,1,3.06.27,2.77-1a58.28,58.28,0,0,0-2.93-9.41,1.38,1.38,0,0,0-1.72-.63c-.5.15-1.46.72-1.18,1.41Z"/><path class="cls-21" d="M35.31,166.39a15.17,15.17,0,0,1-.47,6,.59.59,0,0,0,.31.6,1.64,1.64,0,0,0,1,.15c.63-.08,1.44-.38,1.63-1.06a16.16,16.16,0,0,0,.46-6.49c0-.26-.39-.42-.59-.48a2.12,2.12,0,0,0-1.09,0c-.54.16-1.31.54-1.22,1.22Z"/><path class="cls-21" d="M34.55,165.12a2,2,0,0,0-1.37-.85c-.67-.12-2.23.08-2.33,1-.35,3.31-1,6.65-.68,10,.12,1.4.5,3,2.19,3.1A4,4,0,0,0,35.44,177a16.57,16.57,0,0,0,2.44-3.31c.59-1.25.65-2.83-.63-3.7-1-.66-2.61-.38-3.6.05A4.58,4.58,0,0,0,31,173.93c-.1,1.44.38,3,1.94,3.35a4.89,4.89,0,0,0,3.44-.73,5.91,5.91,0,0,0,.61-.41c.24-.17.63-.49.74-.57A3.3,3.3,0,0,0,39,173.9a1.92,1.92,0,0,0-1.86-2.45,5,5,0,0,0-4.49,2.66c-.69,1.1-1.47,2.92-.4,4s3,.67,4.11-.11a3.44,3.44,0,0,0,1.27-1.73c.23-.65-.91-.76-1.28-.72a1.89,1.89,0,0,0-1.63,1,1.58,1.58,0,0,1-.2.37l0,.05c-.11.1-.11.11,0,0l-.1.06,0,0a2.54,2.54,0,0,1,.37-.1H35c-.14,0-.13,0,0,0s.12.13,0,0a.31.31,0,0,1-.13-.15c-.51-.9.2-2.14.74-2.9a3.72,3.72,0,0,1,.56-.63c.57-.52.08-.06.13-.13.23-.28-.06,0-.26,0,.26-.07,0,0-.06,0s-.1-.12,0,0l.18.21c.39.85-.38,1.25-1,1.71.12-.1-.26.18-.34.23l-.23.14c-.18.11.31-.12,0,0l-.25.11s.37-.12.14-.05-.4.06.09,0c-.25,0,0,0,.09,0-.4,0,.14.05-.08,0s-.14-.1.07,0c0,0-.12,0-.15-.08-.17-.2.09.15-.07-.06a3.11,3.11,0,0,1-.23-.28c-.14-.19,0,.1-.07-.13a2.83,2.83,0,0,1-.11-.31,4.2,4.2,0,0,1-.13-.79c0-.15,0,.21,0,0v-.22c0-.13,0-.25,0-.38a5.87,5.87,0,0,1,.19-.83c0-.07,0-.14.08-.22-.09.22,0,0,0,0s.14-.27.22-.4l.13-.19c.14-.2-.17.18,0,0s.41-.33.11-.14c.05,0,.13-.12.18-.13.24,0-.28.14-.07,0s.37-.15-.1,0l.21,0c-.48.09-.2,0-.08,0-.56.07,0,0,0,0s.39.07,0,0l.37.09-.47-.26c1.74,1.53-.25,3.59-1.33,4.87-.09.1-.41.6-.53.63s.32-.23.1-.12c0,0-.08.07-.13.09-.36.1.28-.12,0,0,.47-.19.28-.1.16-.07a1.26,1.26,0,0,1,.51-.06c-.2,0,.35.08.15,0s-.12-.08.15.05c-.22-.11,0,.06,0,0l-.16-.18-.09-.14c.07.11.06.11,0,0a9,9,0,0,1-.42-3.44c0-1.51.15-3,.32-4.52.12-1.14.29-2.27.41-3.41l-2.32,1c.23,0,.3.13.43.34.59.89,3.39-.1,2.68-1.18Z"/><path class="cls-21" d="M30,180a8.17,8.17,0,0,0,7.32-1.28,7.15,7.15,0,0,0,3-6c0-.69-.68-1-1.33-.92s-1.64.44-1.6,1.15a6,6,0,0,1-.08,1.4c0,.14-.07.27-.1.41s.05-.1,0,.13a5.83,5.83,0,0,1-.23.58c-.11.22-.23.43-.35.64s.14-.18-.06.08a2.35,2.35,0,0,1-.19.25c-.15.19-.31.37-.48.55s-.3.25,0,.05l-.28.23-.55.4c-.29.19.27-.15,0,0l-.32.16-.33.15-.1,0,.08,0c-.05.1-.55.16-.65.18-.38.1.24,0-.06,0l-.32,0-.31,0H32.8c.18,0,.22,0,.11,0s-.46,0-.69-.07.19.06-.08,0l-.42-.12a2,2,0,0,0-2,.55A.81.81,0,0,0,30,180Z"/><path class="cls-21" d="M31,178.9h0l-.37,0h0l-.32,0h0l-.26-.07h0l-.19-.12a0,0,0,0,1,0,0l-.1-.17a.17.17,0,0,1,0,.1v-.2a.33.33,0,0,1,0,.15l.1-.2a.18.18,0,0,1,0,.07l.19-.2,0,0,.26-.19h0l.33-.16h0l.38-.13h0l.39-.08h0l.37,0h0l.32,0h-.07l.26.08-.11-.06.19.13a2.74,2.74,0,0,1-.45-.51,1.26,1.26,0,0,0-.43-.29,2.18,2.18,0,0,0-.88-.11,3.69,3.69,0,0,0-1.08.25,2,2,0,0,0-.69.45c-.11.11-.28.33-.2.5l.31.7a.36.36,0,0,0,.2.23.65.65,0,0,0,.36.15,2.61,2.61,0,0,0,.88,0,2.56,2.56,0,0,0,.9-.33,1.28,1.28,0,0,0,.56-.59l.64-1.63a.26.26,0,0,0,0-.28.36.36,0,0,0-.24-.21,1,1,0,0,0-.42-.09,1.57,1.57,0,0,0-.53,0,2.85,2.85,0,0,0-1.1.36,1.31,1.31,0,0,0-.55.59l-.64,1.64,2.89-.58-.31-.71-.89,1h0l-.37.13,0,0-.39.08h.06l-.37,0h0l-.32,0h.07l-.27-.08a.39.39,0,0,1,.11.06l-.19-.13c.23.16.34.44.56.6a1.2,1.2,0,0,0,.46.24,2.48,2.48,0,0,0,1.35,0,2.65,2.65,0,0,0,.76-.31,1.73,1.73,0,0,0,.5-.43,1.38,1.38,0,0,0,.14-.27.16.16,0,0,0,0-.09.88.88,0,0,0,0-.28.09.09,0,0,0,0-.05.59.59,0,0,0-.11-.19l-.12-.09a.66.66,0,0,0-.13-.08,1.61,1.61,0,0,0-.61-.11,2.69,2.69,0,0,0-.4,0,2.87,2.87,0,0,0-1.1.37A1.09,1.09,0,0,0,30,178a.69.69,0,0,0-.2.3v.2a.5.5,0,0,0,.29.3,1.91,1.91,0,0,0,.95.08Z"/><path class="cls-21" d="M30.54,177.33c.51,0,1.65-.23,1.93-.72s-.26-.55-.7-.55-1.66.22-1.94.71.26.56.71.56Z"/><path class="cls-21" d="M26.72,144.11l1.41,12.19c.09.7,1.23.7,1.71.57s1.27-.64,1.19-1.35l-1.41-12.19c-.08-.7-1.23-.7-1.71-.57s-1.27.63-1.19,1.35Z"/><path class="cls-21" d="M26.3,143.83a285.79,285.79,0,0,1,2.87,34.44c0,.45,2.91,0,2.89-.77a285.94,285.94,0,0,0-2.86-34.45c-.08-.53-3,.06-2.9.78Z"/><path class="cls-21" d="M32,180.61c3.54-1,7.58-2.43,9.84-5.52A9,9,0,0,0,43,167.42a33,33,0,0,0-4.33-9.1c-2-3.25-4.23-6.37-6.25-9.61-1.88-3-3.84-6.3-4.4-9.87-.13-.81-3-.15-2.9.78a24,24,0,0,0,3.4,8.21c1.79,3,3.82,6,5.75,8.92a53.64,53.64,0,0,1,4.92,8.74c1,2.43,1.78,5.25.92,7.85-1.19,3.59-5.09,5.14-8.43,6.06-.36.1-1.44.45-1.29,1s1.29.31,1.61.22Z"/><path class="cls-8" d="M24.88,138.46q1.7,20.47,2.3,41c0,.21.74.07.73-.19q-.61-20.53-2.3-41c0-.21-.75-.06-.73.19Z"/><path class="cls-8" d="M28.1,177.91a8.25,8.25,0,0,0,.62,3.33.36.36,0,0,0,.43.14c.11,0,.37-.17.3-.33a7.8,7.8,0,0,1-.62-3.2c0-.36-.72-.24-.73.06Z"/><path class="cls-8" d="M25.94,138.11l6.22,9.13c.17.24.86,0,.67-.31l-6.23-9.12c-.16-.25-.86,0-.66.3Z"/><path class="cls-8" d="M25,137.26a18,18,0,0,1,5.76,7.15c.14.32.86.11.72-.19a18.35,18.35,0,0,0-5.92-7.37c-.25-.19-.89.17-.56.41Z"/><path class="cls-8" d="M24.91,137.55a14.35,14.35,0,0,1,1.15,5.08c0,.2.73.06.72-.2a14.33,14.33,0,0,0-1.14-5.08c-.1-.23-.81,0-.73.2Z"/><path class="cls-8" d="M25.62,140.82l.93,8.35c0,.36.77.18.73-.19l-.93-8.35c0-.36-.77-.18-.73.19Z"/><path class="cls-8" d="M29.28,180.56a13.83,13.83,0,0,0,10.8-3c.37-.32-.21-.53-.48-.31a12.77,12.77,0,0,1-10.06,2.83c-.34-.05-.75.43-.26.51Z"/><path class="cls-8" d="M25.46,138.17a404.43,404.43,0,0,1,2.89,41.59c0,.1.73,0,.73-.19a404.64,404.64,0,0,0-2.9-41.6c0-.11-.74,0-.72.2Z"/><path class="cls-21" d="M377.84,197.29a10.47,10.47,0,0,0,.18,4.1,2.75,2.75,0,0,0,1.51,1.9,3.3,3.3,0,0,0,1.68.09,5.87,5.87,0,0,0,2.15-.79,5,5,0,0,0,1.83-2.19,9.83,9.83,0,0,0,.77-4.18c0-.18-.44-.21-.52-.22a3.19,3.19,0,0,0-1.06.14,3,3,0,0,0-1,.41c-.15.11-.33.23-.33.45a11.27,11.27,0,0,1-.09,1.64l0-.14a8.77,8.77,0,0,1-.48,2,7.59,7.59,0,0,1-.35.77c-.06.11-.12.22-.19.33l-.1.16-.08.11c.08-.11-.05.06-.07.08l-.1.12a1.75,1.75,0,0,1-.23.24l-.12.11c-.18.15.16-.11.05,0l-.25.16c.35-.23.24-.13.14-.08s.23-.09.18-.07-.35.09.22-.07c-.27.08.33-.06.23,0l.22,0c-.05,0-.27,0,0,0s.09,0,0,0c-.21,0,.23.06.09,0l-.26-.08c.09,0,.14.08,0,0l-.12-.08a1.75,1.75,0,0,1-.46-.44l.08.11a4.16,4.16,0,0,1-.72-1.93,12.65,12.65,0,0,1,0-3.31c0-.17-.46-.22-.51-.22a3.15,3.15,0,0,0-1.06.13c-.43.12-1.27.34-1.33.87Z"/><path class="cls-21" d="M379.33,203.42a4.2,4.2,0,0,0,2.1.31,6.23,6.23,0,0,0,2.83-1,5.57,5.57,0,0,0,2-2.7,7.14,7.14,0,0,0,.42-1.77c0-.17-.47-.21-.52-.21a3.18,3.18,0,0,0-1.06.13,3.21,3.21,0,0,0-1,.42c-.17.12-.31.22-.33.44,0,.05,0,.1,0,.15l0-.14a6.58,6.58,0,0,1-.42,1.58,4.93,4.93,0,0,1-.36.77c-.07.14-.15.26-.23.39l-.13.18-.06.09,0,0c-.19.19-.36.39-.56.57s.17-.11,0,0l-.17.11c-.25.15.23-.11.05,0s.25-.09.13-.05-.35.08.17,0l.14,0c-.22,0,.42-.05.11,0s.33,0,.08,0a.61.61,0,0,0-.19,0h.09l-.11,0a1,1,0,0,1-.23-.06s-.27-.1-.11,0a2.64,2.64,0,0,0-1.87.15,2.09,2.09,0,0,0-.81.45c-.08.09-.25.31-.05.4Z"/><path class="cls-21" d="M383.34,202.07a6.41,6.41,0,0,0,3.77-4.83c.4-1.89.33-3.85.81-5.72.17-.66-.86-.79-1.28-.74-.61.08-1.45.38-1.63,1.05-.44,1.72-.42,3.52-.72,5.27a7,7,0,0,1-.75,2.31,5.29,5.29,0,0,1-.32.5c-.07.09.08-.09-.06.06l-.23.23s-.3.25-.08.09l-.28.19c-.06,0-.37.19-.09.06a3.49,3.49,0,0,1-.34.15c-.43.19-1.17.76-.74,1.28s1.42.32,1.94.1Z"/><path class="cls-21" d="M378.6,196.6c-1.2,1.56-2.05,4.06-.14,5.46a1.86,1.86,0,0,0,1.73.12c.31-.11,1.32-.59,1.06-1.09a7.14,7.14,0,0,1-.65-5,7.68,7.68,0,0,1,.92-2.26,6.89,6.89,0,0,1,.69-.92c.15-.15.31-.31.47-.45l.25-.21c-.15.12.16-.1.17-.11.4-.28.85-.86.24-1.18a2.26,2.26,0,0,0-2.06.25c-3.33,2.29-4.9,7-2.93,10.65l2.79-1a2,2,0,0,1-.88-2,4.79,4.79,0,0,1,1.05-2.2c.43-.56-.37-.89-.8-.91a2.35,2.35,0,0,0-1.91.81Z"/><path class="cls-21" d="M304.46,139.91a6.2,6.2,0,0,1,.73-.88l.21-.19c.23-.18,0-.08.23-.14,0,0-.38.12-.21.08a1.21,1.21,0,0,1-.33.05c-.23,0,.36,0,.08,0a2.77,2.77,0,0,1,.41.12,5.87,5.87,0,0,1,2.49,2.47,13.68,13.68,0,0,1,2,8.9,6,6,0,0,1-.64,1.89,3.51,3.51,0,0,1-.42.59c-.07.08-.26.26-.27.27s-.3.21-.18.13a1.71,1.71,0,0,1-.23.13s.27-.11,0,0a.52.52,0,1,0,.12,0c-.12,0-.54,0-.2,0l-.41,0a4.21,4.21,0,0,1-1.68-.75c-2.56-1.84-3.63-5.46-3.76-8.47a8.67,8.67,0,0,1,1-4.85,3.93,3.93,0,0,1,.62-.79,1.83,1.83,0,0,1,.57-.41c.2-.09-.31.13,0,0s-.13.11,0,0-.31.05,0,0-.11,0,.06,0a3.67,3.67,0,0,1,1.11.07,3.12,3.12,0,0,0,2-.33c.24-.13,1-.75.32-.89a7.66,7.66,0,0,0-6.28,1.27,6.69,6.69,0,0,0-2.26,4.48c-.46,3.59.55,8,3.3,10.52s8.08,1.79,9.62-1.84c1.35-3.2.25-7.47-1.39-10.36-.79-1.39-1.92-2.88-3.55-3.29a5.66,5.66,0,0,0-5.76,2.41c-.36.52.33.61.72.6a2.76,2.76,0,0,0,1.93-.72Z"/><path class="cls-19" d="M432,153.05l-12,15.6c-31.59,63.14,16.56,24.74,12.54,21.28-1.69-6.08,10.9,19.36-19.14,31.15-30.76,12.06,3.6-57.43,3.6-57.43l16-12"/><path class="cls-12" d="M408.47,478.62s101.21-11.46-31.23,77.82c0,0,80.33-79.41,30.06-76.22Z"/></g></g></svg>